<?xml version="1.0" encoding="UTF-8"?>
<svg id="Layer_1" xmlns="http://www.w3.org/2000/svg" version="1.1" viewBox="0 0 1080 1080">
  <!-- Generator: Adobe Illustrator 29.5.0, SVG Export Plug-In . SVG Version: 2.1.0 Build 137)  -->
  <defs>
    <style>
      .st0 {
        fill: #62be70;
      }

      .st1 {
        fill: #579cd5;
      }

      .st2 {
        fill: #f47621;
      }
    </style>
  </defs>
  <g>
    <polygon class="st0" points="289.6 281.6 405.3 299.2 486.8 496.7 674.3 224 860.5 182.3 860.5 182.3 530.1 40.2 199.7 230.2 290.2 282.9 289.6 281.6"/>
    <polygon class="st1" points="290.2 282.9 200.3 230.6 199.7 230.9 199.7 612.4 436.7 743.8 436.7 591.8 289.6 281.6 290.2 282.9"/>
    <polygon class="st2" points="544 580.1 544.3 802.9 860.5 612.4 860.5 183.8 860.2 183.7 544 580.1"/>
  </g>
  <g>
    <g id="Y">
      <polygon class="st1" points="439.9 837.2 388.4 848.7 336.8 923.8 314.4 869.4 282.6 864.6 323 950 323 992 352.7 1008.5 352.6 946.7 439.9 837.2"/>
    </g>
    <g id="a">
      <path class="st0" d="M479.5,890.6v16.9c-9.5-9.5-20.2-17.1-39.9-17.1s-38.1,16.2-40.7,19.1c-2.3,2.5-14.4,15.3-14.4,40.8s12.1,36.7,14.7,39.8c2.5,3.1,17.7,18.3,40.5,18.3s39.9-18.3,39.9-18.3v13.3l26.5,4.8v-112.7l-26.5-5ZM476.8,970.8c-2.7,7.9-12.3,19.4-24.2,19.4-27.8,0-33.3-30.8-33.3-39.8,0-20.7,12-40.8,33.1-40.8s20.2,9.8,22.7,14.6c4.4,8.7,4.4,26.2,4.4,26.2,0,0,0,12.5-2.7,20.3Z"/>
    </g>
    <g id="r">
      <path class="st2" d="M585.3,890.5c-32.1,0-40.4,11.6-44.4,17.1v-16.9l-26.5,5v112.7l26.5-4.8v-13.3s-.3-25.1-.3-39.7-2.1-26.6,26-26.6c-.8-18.2,8.6-28.7,18.8-33.4Z"/>
    </g>
    <g id="s">
      <path class="st1" d="M626.5,936.6c-51.5-19.8-31-55.8,19.8-12.4,0,0,1.1-3.9,2.8-7.3,2.1-4,4-7.7,4-7.7-4.4-5.5-27.8-27.7-59-15.7-35.6,16.3-13.2,50.9-17.6,41.8,7.2,14.9,22.9,20.9,38.1,27.9,38.8,17.8-14.3,46.1-28.5-2.6l-19.1,9.8c9.6,51.5,83.8,46.5,88.6,7.3,1.1-8.8,1.5-27.9-29-41.2Z"/>
    </g>
    <g id="a2">
      <path class="st0" d="M751.2,890.6v16.9c-9.5-9.5-20.2-17.1-39.9-17.1s-38.1,16.2-40.7,19.1c-2.3,2.5-14.4,15.3-14.4,40.8s12.1,36.7,14.7,39.8c2.5,3.1,17.7,18.3,40.5,18.3s39.9-18.3,39.9-18.3v13.3l26.5,4.8v-112.7l-26.5-5ZM747.8,970.8c-2.7,7.9-12.3,19.4-24.2,19.4-27.8,0-33.3-30.8-33.3-39.8,0-20.7,12-40.8,33.1-40.8s20.2,9.8,22.7,14.6c4.4,8.7,4.4,26.2,4.4,26.2,0,0,0,12.5-2.7,20.3Z"/>
    </g>
  </g>
</svg>